<svg width="101" height="101" viewBox="0 0 101 101" fill="none" xmlns="http://www.w3.org/2000/svg">
<path d="M86.5625 0.230469C86.25 0.234375 85.9492 0.300781 85.6641 0.421875C85.3789 0.546875 85.125 0.722657 84.9062 0.945313C84.6914 1.16797 84.5234 1.42578 84.4102 1.71484C84.293 2.00391 84.2383 2.30859 84.2422 2.61719V12.0391H74.8203C74.5039 12.0352 74.1992 12.0937 73.9102 12.2109C73.6172 12.3281 73.3555 12.4961 73.1328 12.7188C72.9102 12.9414 72.7344 13.1953 72.6133 13.4883C72.4922 13.7773 72.4297 14.082 72.4297 14.3945C72.4297 14.7109 72.4922 15.0156 72.6133 15.3047C72.7344 15.5977 72.9102 15.8516 73.1328 16.0742C73.3555 16.293 73.6172 16.4648 73.9102 16.582C74.1992 16.6992 74.5039 16.7539 74.8203 16.75H84.2422V26.1719C84.2383 26.4883 84.293 26.793 84.4102 27.0859C84.5273 27.375 84.6992 27.6367 84.918 27.8594C85.1406 28.0859 85.3984 28.2578 85.6875 28.3789C85.9805 28.5 86.2812 28.5625 86.5977 28.5625C86.9141 28.5625 87.2148 28.5 87.5078 28.3789C87.7969 28.2578 88.0547 28.0859 88.2734 27.8594C88.4961 27.6367 88.6641 27.375 88.7812 27.0859C88.8984 26.793 88.957 26.4883 88.9531 26.1719V16.75H98.375C98.6875 16.7539 98.9922 16.6992 99.2852 16.582C99.5781 16.4648 99.8359 16.293 100.062 16.0742C100.285 15.8516 100.457 15.5977 100.582 15.3047C100.703 15.0156 100.762 14.7109 100.762 14.3945C100.762 14.082 100.703 13.7773 100.582 13.4883C100.457 13.1953 100.285 12.9414 100.062 12.7188C99.8359 12.4961 99.5781 12.3281 99.2852 12.2109C98.9922 12.0937 98.6875 12.0352 98.375 12.0391H88.9531V2.61719C88.957 2.30078 88.8984 1.99609 88.7773 1.69922C88.6602 1.40625 88.4883 1.14453 88.2617 0.921875C88.0352 0.695312 87.7773 0.523438 87.4805 0.402344C87.1875 0.285156 86.8789 0.226562 86.5625 0.230469Z" fill="#2C6871"/>
<path d="M43.4727 17.418C65.6719 17.418 83.7227 35.4688 83.7227 57.668C83.7227 79.8633 65.6719 97.918 43.4727 97.918C21.2773 97.918 3.22266 79.8633 3.22266 57.668C3.22266 35.4688 21.2773 17.418 43.4727 17.418ZM43.4727 100.793C67.2539 100.793 86.5977 81.4453 86.5977 57.668C86.5977 33.8867 67.2539 14.543 43.4727 14.543C19.6914 14.543 0.347656 33.8867 0.347656 57.668C0.347656 81.4453 19.6914 100.793 43.4727 100.793Z" fill="#2C6871"/>
<path d="M43.4727 56.2305C52.0078 56.2305 59.5274 62.1289 61.5938 70.3555C57.1914 76.0078 50.6211 79.2305 43.4727 79.2305C36.3242 79.2305 29.7539 76.0078 25.3516 70.3555C27.418 62.1289 34.9375 56.2305 43.4727 56.2305ZM34.8477 44.7305C34.8477 39.9727 38.7188 36.1055 43.4727 36.1055C48.2305 36.1055 52.0977 39.9727 52.0977 44.7305C52.0977 49.4844 48.2305 53.3555 43.4727 53.3555C38.7188 53.3555 34.8477 49.4844 34.8477 44.7305ZM43.4727 82.1055C51.6445 82.1055 59.4336 78.1562 64.3008 71.5352C64.5469 71.2031 64.6367 70.7891 64.5469 70.3867C62.8984 62.6484 57.0859 56.5938 49.7852 54.332C52.9063 52.2695 54.9727 48.7383 54.9727 44.7305C54.9727 38.3906 49.8125 33.2305 43.4727 33.2305C37.1328 33.2305 31.9727 38.3906 31.9727 44.7305C31.9727 48.7383 34.0391 52.2695 37.1641 54.332C29.8633 56.5938 24.0508 62.6484 22.3984 70.3867C22.3086 70.7891 22.3984 71.2031 22.6484 71.5352C27.5156 78.1562 35.3047 82.1055 43.4727 82.1055Z" fill="#2C6871"/>
</svg>
