<svg width="36" height="41" viewBox="0 0 36 41" fill="none" xmlns="http://www.w3.org/2000/svg">
<path d="M35.3711 1.98438C35.3047 1.07031 34.5391 0.351562 33.6055 0.351562H8.30469C7.32422 0.351562 6.53125 1.14062 6.53125 2.11719V13.4883C6.53125 14.1211 6.86719 14.6719 7.36719 14.9844C7.39062 15 7.41797 15.0156 7.44141 15.0312C7.44922 15.0352 7.45703 15.0391 7.46484 15.043C7.73828 15.1953 8.04297 15.2734 8.35547 15.2578C8.45312 15.2539 8.54688 15.2383 8.64062 15.2188C8.65234 15.2188 8.66406 15.2148 8.67578 15.2148C8.70313 15.207 8.73438 15.1992 8.76562 15.1914C8.79688 15.1836 8.83203 15.1719 8.86328 15.1602C8.875 15.1602 8.88281 15.1562 8.89062 15.1523C9.10156 15.0781 9.28906 14.9688 9.45703 14.8281C9.46094 14.8242 9.46484 14.8203 9.46875 14.8164C9.50391 14.7852 9.53906 14.7539 9.57031 14.7227C9.58984 14.7031 9.60938 14.6797 9.62891 14.6602C9.64453 14.6406 9.66016 14.625 9.67969 14.6055C9.92969 14.3008 10.0781 13.9141 10.0781 13.4961V8.47266C10.0781 8.35547 10.0781 8.24219 10.0781 8.125V3.88281H31.8398V36.5703H10.0781V35.7852C10.0781 35.625 10.0781 35.4609 10.0781 35.3008V26.9414C10.0781 26.4648 9.875 25.9961 9.51562 25.6562C9.17188 25.3281 8.73047 25.1641 8.25781 25.1836C7.98438 25.1992 7.73047 25.2734 7.50781 25.3906C7.48438 25.4023 7.46094 25.4141 7.4375 25.4258C7.42969 25.4297 7.42188 25.4375 7.41016 25.4414C6.88672 25.7461 6.53125 26.3125 6.53125 26.9648V38.3359C6.53125 39.3125 7.32422 40.1016 8.30469 40.1016C8.30859 40.1016 8.30859 40.1016 8.30859 40.1016H33.6094H33.6133C34.5898 40.1016 35.3867 39.3125 35.3867 38.3359V2.1875C35.3828 2.12109 35.3789 2.05078 35.3711 1.98438Z" fill="#2C6871"/>
<path d="M24.8477 21.2344C24.8672 21.2109 24.8867 21.1875 24.9062 21.1602C24.9219 21.1328 24.9375 21.1094 24.9531 21.082C24.9648 21.0586 24.9805 21.0352 24.9961 21.0117C25.0078 20.9844 25.0195 20.957 25.0352 20.9336C25.0469 20.9062 25.0586 20.8828 25.0703 20.8555C25.0781 20.8281 25.0898 20.8047 25.0977 20.7773C25.1094 20.75 25.1172 20.7227 25.1289 20.6914C25.1367 20.668 25.1406 20.6406 25.1484 20.6133C25.1562 20.5859 25.1641 20.5547 25.168 20.5273C25.1758 20.4961 25.1797 20.4648 25.1836 20.4336C25.1875 20.4062 25.1914 20.3828 25.1953 20.3555C25.207 20.2383 25.207 20.125 25.1953 20.0078C25.1914 19.9805 25.1875 19.957 25.1836 19.9297C25.1797 19.8984 25.1758 19.8672 25.168 19.8359C25.1641 19.8086 25.1562 19.7773 25.1484 19.75C25.1406 19.7227 25.1367 19.6953 25.1289 19.6719C25.1172 19.6406 25.1094 19.6133 25.0977 19.5859C25.0898 19.5586 25.0781 19.5352 25.0703 19.5078C25.0586 19.4805 25.0469 19.457 25.0352 19.4297C25.0195 19.4062 25.0078 19.3789 24.9961 19.3516C24.9805 19.3281 24.9688 19.3047 24.9531 19.2812C24.9375 19.2539 24.9219 19.2305 24.9062 19.2031C24.8867 19.1758 24.8672 19.1523 24.8516 19.1289C24.8359 19.1055 24.8203 19.0859 24.8047 19.0664C24.7656 19.0195 24.7266 18.9766 24.6836 18.9375L18.7227 13C18.0312 12.3125 16.9102 12.3125 16.2188 13C15.5273 13.6875 15.5273 14.8008 16.2188 15.4883L19.1641 18.4219H2.67969C1.70312 18.4219 0.910156 19.207 0.910156 20.1797C0.910156 21.1562 1.70312 21.9414 2.67969 21.9414H19.1641L16.2188 24.8711C15.5273 25.5625 15.5273 26.6758 16.2188 27.3633C16.9102 28.0508 18.0312 28.0508 18.7227 27.3633L24.6836 21.4258C24.7266 21.3867 24.7656 21.3438 24.8008 21.2969C24.8203 21.2773 24.832 21.2578 24.8477 21.2344Z" fill="#2C6871"/>
</svg>
