<svg width="42" height="41" viewBox="0 0 42 41" fill="none" xmlns="http://www.w3.org/2000/svg">
<path d="M0.849306 38.3958C0.910972 39.3102 1.67286 40.0329 2.60644 40.0377L27.9069 40.1689C28.8873 40.174 29.6844 39.389 29.6895 38.4125L29.7484 27.0416C29.7517 26.4088 29.4186 25.8562 28.9202 25.5412C28.8969 25.5254 28.8696 25.5096 28.8463 25.4939C28.8385 25.4899 28.8307 25.486 28.8229 25.4821C28.5502 25.3283 28.246 25.2486 27.9334 25.2626C27.8357 25.266 27.7419 25.2811 27.648 25.3002C27.6363 25.3001 27.6246 25.304 27.6129 25.3039C27.5855 25.3116 27.5542 25.3192 27.5229 25.3269C27.4916 25.3345 27.4564 25.3461 27.4251 25.3576C27.4134 25.3576 27.4055 25.3614 27.3977 25.3653C27.1864 25.4384 26.9983 25.5468 26.8296 25.6866C26.8257 25.6905 26.8218 25.6943 26.8178 25.6982C26.7825 25.7293 26.7472 25.7604 26.7158 25.7914C26.6961 25.8109 26.6765 25.8342 26.6569 25.8536C26.6411 25.8731 26.6254 25.8886 26.6058 25.9081C26.3542 26.2115 26.2038 26.5974 26.2016 27.0154L26.1756 32.0387C26.175 32.1559 26.1744 32.2692 26.1738 32.3864L26.1518 36.6285L4.39035 36.5157L4.55981 3.82863L26.3212 3.94145L26.3172 4.72659C26.3163 4.88675 26.3155 5.05081 26.3147 5.21096L26.2713 13.5702C26.2688 14.0468 26.4695 14.5166 26.8272 14.8583C27.1692 15.1882 27.6097 15.3545 28.0825 15.3375C28.356 15.3232 28.6103 15.2503 28.8336 15.1343C28.8571 15.1227 28.8806 15.1111 28.9041 15.0995C28.9119 15.0957 28.9197 15.0879 28.9315 15.084C29.4565 14.7821 29.8149 14.2175 29.8183 13.5652L29.8772 2.19423C29.8823 1.21769 29.0934 0.424523 28.113 0.41944C28.1091 0.419419 28.1091 0.419419 28.1091 0.419419L2.80861 0.288252L2.80471 0.288232C1.82816 0.283169 1.0272 1.06809 1.02214 2.04464L0.834734 38.1926C0.838296 38.259 0.841838 38.3293 0.849306 38.3958Z" fill="#2C6871"/>
<path d="M40.929 22.182C40.9489 22.1589 40.9688 22.1358 40.9887 22.1087C41.0048 22.0816 41.0208 22.0584 41.0368 22.0313C41.0489 22.0081 41.0649 21.9849 41.0809 21.9617C41.093 21.9346 41.1052 21.9074 41.1212 21.8842C41.1333 21.8571 41.1454 21.8338 41.1575 21.8066C41.1658 21.7794 41.1779 21.7562 41.1861 21.729C41.1982 21.7018 41.2065 21.6746 41.2187 21.6435C41.2269 21.6202 41.2312 21.5929 41.2394 21.5657C41.2477 21.5385 41.256 21.5074 41.2603 21.4801C41.2686 21.449 41.273 21.4178 41.2774 21.3866C41.2818 21.3593 41.286 21.3359 41.2904 21.3087C41.3039 21.1917 41.3057 21.0784 41.2958 20.9611C41.2923 20.9337 41.2888 20.9102 41.2853 20.8828C41.2819 20.8514 41.2785 20.8201 41.2712 20.7888C41.2677 20.7614 41.2604 20.73 41.253 20.7025C41.2456 20.6751 41.2421 20.6477 41.2347 20.6241C41.2235 20.5927 41.2161 20.5652 41.2048 20.5377C41.1974 20.5102 41.186 20.4866 41.1787 20.4592C41.1674 20.4316 41.156 20.408 41.1447 20.3805C41.1295 20.3568 41.1182 20.3293 41.1069 20.3018C41.0917 20.2781 41.0803 20.2545 41.065 20.2308C41.0499 20.2032 41.0346 20.1795 41.0194 20.1519C41.0003 20.1243 40.9811 20.1005 40.9659 20.0769C40.9506 20.0532 40.9353 20.0334 40.92 20.0136C40.8817 19.9662 40.8433 19.9226 40.8009 19.8829L34.9338 13.8526C34.2533 13.1544 33.1323 13.1368 32.4302 13.8134C31.7281 14.4899 31.7107 15.6031 32.3912 16.3013L35.2902 19.2808L18.8078 19.0223C17.8314 19.007 17.0262 19.7796 17.0109 20.7522C16.9956 21.7286 17.7762 22.5261 18.7526 22.5414L35.235 22.7999L32.2441 25.683C31.5419 26.3635 31.5245 27.4766 32.205 28.1749C32.8856 28.8731 34.0065 28.8907 34.7086 28.2141L40.7619 22.3708C40.8055 22.3324 40.8452 22.2901 40.8811 22.2438C40.901 22.2245 40.913 22.2052 40.929 22.182Z" fill="#2C6871"/>
</svg>
