<svg width="77" height="107" viewBox="0 0 77 107" fill="none" xmlns="http://www.w3.org/2000/svg">
<path d="M10.8867 22.2422C8.55078 22.2422 6.64844 24.1406 6.64844 26.4805V96.3086C6.64844 98.6445 8.55078 100.547 10.8867 100.547H65.5742C67.9102 100.547 69.8125 98.6445 69.8125 96.3086V26.4805C69.8125 24.1406 67.9102 22.2422 65.5742 22.2422H10.8867ZM65.5742 106.77H10.8867C5.12109 106.77 0.429688 102.078 0.429688 96.3086V26.4805C0.429688 20.7109 5.12109 16.0156 10.8867 16.0156H65.5742C71.3398 16.0156 76.0352 20.7109 76.0352 26.4805V96.3086C76.0352 102.078 71.3398 106.77 65.5742 106.77Z" fill="#2C6871"/>
<path d="M53.7344 28.9805H23.6562V12.3008H53.7344V28.9805Z" fill="#2C6871"/>
<path d="M38.6992 6.51172C37.125 6.51172 35.8438 7.79297 35.8438 9.36328C35.8438 10.9375 37.125 12.2188 38.6992 12.2188C40.2695 12.2188 41.5469 10.9375 41.5469 9.36328C41.5469 7.79297 40.2695 6.51172 38.6992 6.51172ZM38.6992 18.4414C33.6914 18.4414 29.6211 14.3672 29.6211 9.36328C29.6211 4.35938 33.6914 0.289062 38.6992 0.289062C43.6992 0.289062 47.7734 4.35938 47.7734 9.36328C47.7734 14.3672 43.6992 18.4414 38.6992 18.4414Z" fill="#2C6871"/>
<path d="M62.3945 43.1562H14.0664V37.2773H62.3945V43.1562Z" fill="#2C6871"/>
<path d="M17.1641 62.2852L13.0664 58.1875L14.5352 56.7188L16.8633 59.0508L22.4492 50.8789L24.1641 52.0508L17.1641 62.2852Z" fill="#2C6871"/>
<path d="M58.7734 57.1016H27.4258V55.0312H58.7734V57.1016Z" fill="#2C6871"/>
<path d="M17.1641 75.2969L13.0664 71.1992L14.5352 69.7305L16.8633 72.0625L22.4492 63.8906L24.1641 65.0625L17.1641 75.2969Z" fill="#2C6871"/>
<path d="M58.7734 70.1133H27.4258V68.043H58.7734V70.1133Z" fill="#2C6871"/>
<path d="M17.1641 88.3086L13.0664 84.2109L14.5352 82.7461L16.8633 85.0742L22.4492 76.9062L24.1641 78.0742L17.1641 88.3086Z" fill="#2C6871"/>
<path d="M58.7734 83.125H27.4258V81.0547H58.7734V83.125Z" fill="#2C6871"/>
</svg>
