<svg width="32" height="38" viewBox="0 0 32 38" fill="none" xmlns="http://www.w3.org/2000/svg">
<path d="M15.875 0.886719C10.3672 0.886719 5.88672 5.35156 5.88672 10.8398V15.4336H2.8125C1.55078 15.4336 0.507812 16.4727 0.507812 17.7305V35.3398C0.507812 36.6016 1.55078 37.6367 2.8125 37.6367H28.9375C30.1992 37.6367 31.2422 36.6016 31.2422 35.3398V17.7305C31.2422 16.4727 30.1992 15.4336 28.9375 15.4336H25.8633V10.8398C25.8633 5.35156 21.3828 0.886719 15.875 0.886719ZM15.875 2.41797C20.5508 2.41797 24.3281 6.17969 24.3281 10.8398V15.4336H7.42188V10.8398C7.42188 6.17969 11.1992 2.41797 15.875 2.41797ZM2.8125 16.9648H28.9375C29.3711 16.9648 29.707 17.2969 29.707 17.7305V35.3398C29.707 35.7734 29.3711 36.1055 28.9375 36.1055H2.8125C2.37891 36.1055 2.04297 35.7734 2.04297 35.3398V17.7305C2.04297 17.2969 2.37891 16.9648 2.8125 16.9648ZM6.65625 25.3867C6.44922 25.3867 6.25391 25.4258 6.06641 25.5039C5.87891 25.582 5.71094 25.6914 5.56641 25.8359C5.42578 25.9805 5.3125 26.1445 5.23438 26.332C5.15625 26.5195 5.11719 26.7148 5.11719 26.918C5.11719 27.1211 5.15625 27.3164 5.23438 27.5039C5.3125 27.6914 5.42578 27.8594 5.56641 28C5.71094 28.1445 5.87891 28.2539 6.06641 28.332C6.25391 28.4102 6.44922 28.4492 6.65625 28.4492C6.85938 28.4492 7.05469 28.4102 7.24219 28.332C7.42969 28.2539 7.59766 28.1445 7.74219 28C7.88672 27.8594 7.99609 27.6914 8.07422 27.5039C8.15234 27.3164 8.19141 27.1211 8.19141 26.918C8.19141 26.7148 8.15234 26.5195 8.07422 26.332C7.99609 26.1445 7.88672 25.9805 7.74219 25.8359C7.59766 25.6914 7.42969 25.582 7.24219 25.5039C7.05469 25.4258 6.85938 25.3867 6.65625 25.3867ZM12.8008 25.3867C12.5977 25.3867 12.4023 25.4258 12.2148 25.5039C12.0234 25.582 11.8594 25.6914 11.7148 25.8359C11.5703 25.9805 11.4609 26.1445 11.3828 26.332C11.3047 26.5195 11.2656 26.7148 11.2656 26.918C11.2656 27.1211 11.3047 27.3164 11.3828 27.5039C11.4609 27.6914 11.5703 27.8594 11.7148 28C11.8594 28.1445 12.0234 28.2539 12.2148 28.332C12.4023 28.4102 12.5977 28.4492 12.8008 28.4492C13.0039 28.4492 13.2031 28.4102 13.3906 28.332C13.5781 28.2539 13.7422 28.1445 13.8867 28C14.0312 27.8594 14.1445 27.6914 14.2227 27.5039C14.3008 27.3164 14.3398 27.1211 14.3398 26.918C14.3398 26.7148 14.3008 26.5195 14.2227 26.332C14.1445 26.1445 14.0312 25.9805 13.8867 25.8359C13.7422 25.6914 13.5781 25.582 13.3906 25.5039C13.2031 25.4258 13.0039 25.3867 12.8008 25.3867ZM18.9492 25.3867C18.7461 25.3867 18.5469 25.4258 18.3594 25.5039C18.1719 25.582 18.0078 25.6914 17.8633 25.8359C17.7188 25.9805 17.6055 26.1445 17.5273 26.332C17.4492 26.5195 17.4102 26.7148 17.4102 26.918C17.4102 27.1211 17.4492 27.3164 17.5273 27.5039C17.6055 27.6914 17.7188 27.8594 17.8633 28C18.0078 28.1445 18.1719 28.2539 18.3594 28.332C18.5469 28.4102 18.7461 28.4492 18.9492 28.4492C19.1523 28.4492 19.3477 28.4102 19.5352 28.332C19.7266 28.2539 19.8906 28.1445 20.0352 28C20.1797 27.8594 20.2891 27.6914 20.3672 27.5039C20.4453 27.3164 20.4844 27.1211 20.4844 26.918C20.4844 26.7148 20.4453 26.5195 20.3672 26.332C20.2891 26.1445 20.1797 25.9805 20.0352 25.8359C19.8906 25.6914 19.7266 25.582 19.5352 25.5039C19.3477 25.4258 19.1523 25.3867 18.9492 25.3867ZM25.0938 25.3867C24.8906 25.3867 24.6953 25.4258 24.5078 25.5039C24.3203 25.582 24.1523 25.6914 24.0078 25.8359C23.8633 25.9805 23.7539 26.1445 23.6758 26.332C23.5977 26.5195 23.5586 26.7148 23.5586 26.918C23.5586 27.1211 23.5977 27.3164 23.6758 27.5039C23.7539 27.6914 23.8633 27.8594 24.0078 28C24.1523 28.1445 24.3203 28.2539 24.5078 28.332C24.6953 28.4102 24.8906 28.4492 25.0938 28.4492C25.3008 28.4492 25.4961 28.4102 25.6836 28.332C25.8711 28.2539 26.0391 28.1445 26.1836 28C26.3242 27.8594 26.4375 27.6914 26.5156 27.5039C26.5938 27.3164 26.6328 27.1211 26.6328 26.918C26.6328 26.7148 26.5938 26.5195 26.5156 26.332C26.4375 26.1445 26.3242 25.9805 26.1836 25.8359C26.0391 25.6914 25.8711 25.582 25.6836 25.5039C25.4961 25.4258 25.3008 25.3867 25.0938 25.3867Z" fill="#2C6871"/>
</svg>
