<svg width="25" height="30" viewBox="0 0 25 30" fill="none" xmlns="http://www.w3.org/2000/svg">
<path d="M3.59766 2.45703C2.83203 2.45703 2.21094 3.07422 2.21094 3.82812V26.4492C2.21094 27.207 2.83203 27.8242 3.59766 27.8242H21.4688C22.2344 27.8242 22.8555 27.207 22.8555 26.4492V3.82812C22.8555 3.07422 22.2344 2.45703 21.4688 2.45703H3.59766ZM21.4688 29.8398H3.59766C1.71094 29.8398 0.179688 28.3203 0.179688 26.4492V3.82812C0.179688 1.96094 1.71094 0.441406 3.59766 0.441406H21.4688C23.3555 0.441406 24.8867 1.96094 24.8867 3.82812V26.4492C24.8867 28.3203 23.3555 29.8398 21.4688 29.8398Z" fill="#2C6871"/>
</svg>
