<svg width="53" height="54" viewBox="0 0 53 54" fill="none" xmlns="http://www.w3.org/2000/svg">
<g clip-path="url(#clip0_22_23)">
<path d="M26.4258 2.27202C39.9375 2.27202 50.9258 13.3012 50.9258 26.8633C50.9258 40.4253 39.9375 51.4545 26.4258 51.4545C12.9141 51.4545 1.92578 40.4253 1.92578 26.8633C1.92578 13.3012 12.9141 2.27202 26.4258 2.27202ZM26.4258 53.211C40.8984 53.211 52.6758 41.3898 52.6758 26.8633C52.6758 12.3328 40.8984 0.515503 26.4258 0.515503C11.9492 0.515503 0.175781 12.3328 0.175781 26.8633C0.175781 41.3898 11.9492 53.211 26.4258 53.211Z" fill="#2C6871"/>
<path d="M26.4258 25.985C31.6211 25.985 36.1953 29.5882 37.4531 34.6147C34.7734 38.065 30.7774 40.0371 26.4258 40.0371C22.0742 40.0371 18.0742 38.065 15.3945 34.6147C16.6524 29.5882 21.2305 25.985 26.4258 25.985ZM21.1758 18.9589C21.1758 16.0536 23.5313 13.6894 26.4258 13.6894C29.3203 13.6894 31.6758 16.0536 31.6758 18.9589C31.6758 21.8642 29.3203 24.2285 26.4258 24.2285C23.5313 24.2285 21.1758 21.8642 21.1758 18.9589ZM26.4258 41.7937C31.3984 41.7937 36.1406 39.3824 39.1016 35.3361C39.2539 35.1322 39.3086 34.8813 39.2539 34.6343C38.2461 29.9058 34.7109 26.2085 30.2656 24.8244C32.168 23.5659 33.4258 21.4055 33.4258 18.9589C33.4258 15.0852 30.2852 11.9329 26.4258 11.9329C22.5664 11.9329 19.4258 15.0852 19.4258 18.9589C19.4258 21.4055 20.6836 23.5659 22.582 24.8244C18.1406 26.2085 14.6016 29.9058 13.5977 34.6343C13.543 34.8813 13.5977 35.1322 13.7461 35.3361C16.7109 39.3824 21.4531 41.7937 26.4258 41.7937Z" fill="#2C6871"/>
</g>
<defs>
<clipPath id="clip0_22_23">
<rect width="53" height="54" fill="white"/>
</clipPath>
</defs>
</svg>
