<svg width="49" height="49" viewBox="0 0 49 49" fill="none" xmlns="http://www.w3.org/2000/svg">
<path d="M46.4844 41.974L41.082 42.9581V6.72997C41.082 5.87523 40.3828 5.17733 39.5312 5.17733H25.5977V4.29907L41.8516 2.07598C42.3164 2.02109 42.7422 2.35044 42.793 2.81701L47.2695 40.9154C47.2695 40.9546 47.2734 40.9899 47.2734 41.0252C47.2734 41.4918 46.9453 41.8878 46.4844 41.974ZM39.5312 47.1377H14.7578V32.0348L16.8281 34.5284C17.7422 35.6302 19.0898 36.2614 20.5586 36.2614C21.6289 36.2614 22.5 35.3871 22.5 34.2657C22.5 33.905 22.3984 33.5482 22.2148 33.2385L18.6484 27.2671C17.9492 26.1026 16.6797 25.3812 15.3242 25.3812H14.7578V6.72997H17.8555V9.06284C17.8555 10.3489 18.8945 11.3918 20.1758 11.3918C21.4609 11.3918 22.5 10.3489 22.5 9.06284V6.72997H24.0469V9.83916H25.5977V6.72997H39.5312V47.1377ZM8.46094 39.6137L7.01562 38.8884V29.6823L9.94922 27.718C10.7188 27.2044 11.6055 26.9338 12.5273 26.9338H15.3242C16.1367 26.9338 16.9023 27.3691 17.3203 28.067L20.8867 34.0423C20.9297 34.1089 20.9492 34.1873 20.9492 34.3128C20.9492 34.5284 20.7773 34.7049 20.5234 34.7049C19.5469 34.7049 18.6367 34.2775 18.0195 33.5325L14.8125 29.6706L14.0781 30.4038C12.8086 31.6741 11.1289 32.3759 9.33984 32.3759V33.9286C10.7109 33.9286 12.0312 33.5874 13.2109 32.9562V40.8762C11.5625 40.7703 9.9375 40.3547 8.46094 39.6137ZM2.37109 40.9233V28.4904H5.46875V40.9233H2.37109ZM19.4023 6.72997H20.9492V9.06284C20.9492 9.49021 20.6016 9.83916 20.1758 9.83916C19.75 9.83916 19.4023 9.49021 19.4023 9.06284V6.72997ZM19.4023 3.62078C19.4023 2.76604 20.0977 2.06814 20.9492 2.06814H22.5C23.3516 2.06814 24.0469 2.76604 24.0469 3.62078V5.17733H22.5V3.62078H20.9492V5.17733H19.4023V3.62078ZM48.8047 40.7311L44.3359 2.64058C44.1992 1.42905 43.1797 0.515503 41.9648 0.515503C41.8555 0.515503 41.7461 0.519424 41.6406 0.535107L25.457 2.75036C25.0781 1.46434 23.9062 0.515503 22.5 0.515503H20.9492C19.2422 0.515503 17.8555 1.90739 17.8555 3.62078V5.17733H14.7578C13.9062 5.17733 13.2109 5.87523 13.2109 6.72997V25.3812H12.5273C11.3008 25.3812 10.1133 25.7419 9.08984 26.4241L6.89453 27.8944C6.66016 27.3338 6.11328 26.9338 5.46875 26.9338H2.37109C1.51953 26.9338 0.820312 27.6317 0.820312 28.4904V40.9233C0.820312 41.778 1.51953 42.4759 2.37109 42.4759H5.46875C6.32031 42.4759 7.01562 41.778 7.01562 40.9233V40.6253L7.77344 41.0056C9.46094 41.8525 11.3242 42.3465 13.2109 42.4524V47.1377C13.2109 47.9964 13.9062 48.6943 14.7578 48.6943H39.5312C40.3828 48.6943 41.082 47.9964 41.082 47.1377V44.5382L46.7617 43.5031C47.957 43.2836 48.8203 42.2446 48.8203 41.0252C48.8203 40.9272 48.8164 40.8252 48.8047 40.7311Z" fill="#2C6871"/>
<path d="M27.1445 28.4904H36.4336V37.8141H27.1445V28.4904ZM25.5977 39.3667H37.9844V26.9338H25.5977V39.3667Z" fill="#2C6871"/>
<path d="M30.2422 42.4759H37.9844V40.9232H30.2422V42.4759Z" fill="#2C6871"/>
<path d="M25.5977 40.9232V42.4759H28.6914V40.9232H25.5977Z" fill="#2C6871"/>
<path d="M25.5977 45.5851H37.9844V44.0325H25.5977V45.5851Z" fill="#2C6871"/>
<path d="M16.3047 42.4759H24.0469V40.9232H16.3047V42.4759Z" fill="#2C6871"/>
<path d="M16.3047 45.5851H24.0469V44.0325H16.3047V45.5851Z" fill="#2C6871"/>
<path d="M20.9492 39.3667H24.0469V37.8141H20.9492V39.3667Z" fill="#2C6871"/>
<path d="M19.4023 37.8141H16.3047V39.3667H19.4023V37.8141Z" fill="#2C6871"/>
<path d="M25.5977 25.3812H37.9844V23.8286H25.5977V25.3812Z" fill="#2C6871"/>
<path d="M17.8555 22.272H24.0469V20.7194H17.8555V22.272Z" fill="#2C6871"/>
<path d="M17.8555 19.1628H24.0469V17.6102H17.8555V19.1628Z" fill="#2C6871"/>
<path d="M25.5977 19.1628H37.9844V17.6102H25.5977V19.1628Z" fill="#2C6871"/>
<path d="M17.8555 16.0575H37.9844V14.501H17.8555V16.0575Z" fill="#2C6871"/>
<path d="M25.5977 20.7194V22.272H28.6914V20.7194H25.5977Z" fill="#2C6871"/>
<path d="M30.2422 22.272H37.9844V20.7194H30.2422V22.272Z" fill="#2C6871"/>
<path d="M37.9844 11.3918H30.2422V12.9483H37.9844V11.3918Z" fill="#2C6871"/>
<path d="M28.6914 11.3918H25.5977V12.9483H28.6914V11.3918Z" fill="#2C6871"/>
</svg>
