<svg width="31" height="31" viewBox="0 0 31 31" fill="none" xmlns="http://www.w3.org/2000/svg">
<path d="M2.32031 0.5C1.14453 0.5 0.179688 1.46875 0.179688 2.64453V28.3555C0.179688 29.5312 1.14453 30.5 2.32031 30.5H28.0352C29.2109 30.5 30.1797 29.5312 30.1797 28.3555V7.07031C30.1797 6.875 30.1094 6.70703 29.9688 6.56641L24.1133 0.710938C23.9727 0.570312 23.8047 0.5 23.6055 0.5H2.32031ZM2.32031 1.92969H5.89062V10.5C5.89062 11.6758 6.85938 12.6445 8.03516 12.6445H21.6055C22.7812 12.6445 23.75 11.6758 23.75 10.5V2.36719L28.75 7.36719V28.3555C28.75 28.7539 28.4297 29.0703 28.0352 29.0703H24.4648V18.3555C24.4648 17.1836 23.4961 16.2148 22.3203 16.2148H8.03516C6.85938 16.2148 5.89062 17.1836 5.89062 18.3555V29.0703H2.32031C1.92578 29.0703 1.60547 28.7539 1.60547 28.3555V2.64453C1.60547 2.24609 1.92578 1.92969 2.32031 1.92969ZM7.32031 1.92969H22.3203V10.5C22.3203 10.8945 22.0039 11.2148 21.6055 11.2148H8.03516C7.64062 11.2148 7.32031 10.8945 7.32031 10.5V1.92969ZM18.0352 3.35547C17.8398 3.35547 17.668 3.42578 17.5312 3.56641C17.3906 3.70703 17.3203 3.875 17.3203 4.07031V9.07031C17.3203 9.26953 17.3906 9.4375 17.5312 9.57812C17.668 9.71484 17.8398 9.78516 18.0352 9.78516H20.1797C20.375 9.78516 20.543 9.71484 20.6836 9.57812C20.8242 9.4375 20.8906 9.26953 20.8906 9.07031V4.07031C20.8906 3.875 20.8242 3.70703 20.6836 3.56641C20.543 3.42578 20.375 3.35547 20.1797 3.35547H18.0352ZM18.75 4.78516H19.4648V8.35547H18.75V4.78516ZM8.03516 17.6445H22.3203C22.7188 17.6445 23.0352 17.9609 23.0352 18.3555V29.0703H7.32031V18.3555C7.32031 17.9609 7.64062 17.6445 8.03516 17.6445ZM3.03516 26.2148V27.6445H4.46484V26.2148H3.03516ZM25.8906 26.2148V27.6445H27.3203V26.2148H25.8906Z" fill="#2C6871"/>
</svg>
