<svg width="105" height="91" viewBox="0 0 105 91" fill="none" xmlns="http://www.w3.org/2000/svg">
<g clip-path="url(#clip0_22_26)">
<path d="M74.8398 9.15048H87.668C88.1445 9.15048 88.6133 9.19753 89.0742 9.28771C89.5391 9.38181 89.9922 9.51904 90.4297 9.6994C90.8633 9.87975 91.2813 10.1032 91.6758 10.3659C92.0664 10.6286 92.4297 10.9305 92.7656 11.2638C93.1016 11.5971 93.3984 11.9617 93.6641 12.3577C93.9258 12.7498 94.1484 13.1654 94.3281 13.6045C94.5078 14.0397 94.6445 14.4906 94.7383 14.9533C94.832 15.4198 94.875 15.8864 94.875 16.3608V32.5302C94.875 33.7457 94.875 34.6553 94.2695 35.8707H96.0898C102.254 35.8707 104.594 39.5132 104.594 44.0691V55.3022C104.594 59.8582 102.863 63.8064 96.0898 63.8064H94.2695C94.875 64.716 94.875 65.9315 94.875 67.1469V83.0026C94.875 83.4771 94.832 83.9436 94.7383 84.4102C94.6445 84.8729 94.5078 85.3238 94.3281 85.759C94.1484 86.1981 93.9258 86.6137 93.6641 87.0058C93.3984 87.4018 93.1016 87.7664 92.7656 88.0997C92.4297 88.433 92.0664 88.7309 91.6719 88.9975C91.2812 89.2602 90.8633 89.4798 90.4258 89.6602C89.9922 89.8444 89.5391 89.9817 89.0742 90.0718C88.6094 90.1659 88.1406 90.2091 87.668 90.2091H6.94141C6.53125 90.2091 6.12891 90.1699 5.72656 90.0875C5.32813 90.0091 4.9375 89.8876 4.5625 89.7307C4.18359 89.5778 3.82422 89.3857 3.48828 89.1583C3.14844 88.9309 2.83203 88.6721 2.54297 88.3859C2.25391 88.0958 1.99609 87.7821 1.76953 87.4449C1.54297 87.1038 1.35156 86.747 1.19141 86.3706C1.03516 85.9942 0.914062 85.6061 0.835938 85.2061C0.753904 84.8062 0.710938 84.3984 0.710938 83.9907V16.6667C0.710938 16.1726 0.761719 15.6825 0.859375 15.2003C0.953125 14.718 1.09766 14.2475 1.28906 13.7927C1.47656 13.3379 1.70703 12.9066 1.98047 12.4949C2.25781 12.0872 2.56641 11.7068 2.91406 11.3579C3.26563 11.0089 3.64453 10.6992 4.05469 10.4247C4.46094 10.1503 4.89453 9.91896 5.35156 9.72684C5.80469 9.53864 6.27344 9.39749 6.75781 9.29947C7.24219 9.20145 7.72656 9.15048 8.22266 9.15048H49.0312L67.8555 0.34437C69.0703 -0.263354 70.5898 0.34437 71.1953 1.55982L74.8398 9.15048Z" fill="#2C6871"/>
<path d="M75.5508 36.0002L87.5898 35.9453C88.8047 35.6434 90.0195 34.0476 90.0195 32.5303V24.03H14.7227C13.207 24.03 11.9922 22.8145 11.9922 21.5991C11.9922 21.2384 12.0625 20.8894 12.1992 20.5522C12.3398 20.2189 12.5352 19.9249 12.793 19.6661C13.0469 19.4113 13.3437 19.2152 13.6797 19.0741C14.0117 18.9368 14.3633 18.8663 14.7227 18.8663H28.6914L38.4062 14.3103H9.21094C8.76953 14.3142 8.34375 14.4044 7.9375 14.573C7.53125 14.7455 7.17188 14.9886 6.85938 15.2983C6.54688 15.612 6.30469 15.9727 6.13281 16.3805C5.96094 16.7843 5.875 17.2117 5.87109 17.6508V82.0225C5.875 82.4655 5.96094 82.889 6.13281 83.2968C6.30469 83.7045 6.54688 84.0652 6.85938 84.3789C7.17188 84.6886 7.53125 84.9317 7.9375 85.1003C8.34375 85.2728 8.76953 85.3591 9.21094 85.363H86.6797C87.1211 85.3591 87.5469 85.2728 87.9531 85.1003C88.3594 84.9317 88.7188 84.6886 89.0312 84.3789C89.3438 84.0652 89.5859 83.7045 89.7578 83.2968C89.9297 82.889 90.0156 82.4655 90.0195 82.0225V67.147C90.0156 66.7039 89.9297 66.2805 89.7578 65.8727C89.5859 65.465 89.3438 65.1042 89.0312 64.7945C88.7188 64.4808 88.3594 64.2378 87.9531 64.0692C87.5469 63.8966 87.1211 63.8104 86.6797 63.8065H71.3008C64.5273 63.8065 63.1055 60.164 63.1055 55.3023V44.0692C63.1055 36.4785 68.2656 36.0002 75.5508 36.0002Z" fill="#CBD2D8"/>
<path d="M40.5312 18.8662H73.9298L67.5508 6.11578L40.5312 18.8662Z" fill="#8FFFA8"/>
<path d="M79.6953 18.8663H90.0195V17.6508C90.0156 17.2117 89.9297 16.7843 89.7578 16.3805C89.5859 15.9727 89.3438 15.612 89.0312 15.2983C88.7188 14.9886 88.3594 14.7455 87.9531 14.573C87.5469 14.4044 87.1211 14.3142 86.6797 14.3103H77.2695L79.6953 18.8663Z" fill="#B0BBC4"/>
<path d="M96.0898 41.0344H71.3008C69.4805 41.0344 68.2656 42.246 68.2656 44.0691V55.3022C68.2656 57.1254 69.4805 58.6427 71.3008 58.6427H96.0898C96.5312 58.6388 96.957 58.5526 97.3633 58.38C97.7734 58.2114 98.1328 57.9684 98.4453 57.6586C98.7578 57.3449 98.9961 56.9842 99.168 56.5765C99.3398 56.1687 99.4258 55.7453 99.4297 55.3022V44.0691C99.4297 42.246 97.9141 41.0344 96.0898 41.0344Z" fill="#CBD2D8"/>
<path d="M82.0469 49.8367C82.0469 50.1464 82.0156 50.4483 81.957 50.7502C81.8984 51.0521 81.8086 51.3423 81.6914 51.6285C81.5742 51.9108 81.4297 52.1813 81.2578 52.4362C81.0898 52.691 80.8945 52.9263 80.6797 53.1419C80.4609 53.3615 80.2266 53.5536 79.9688 53.7222C79.7148 53.8947 79.4453 54.0398 79.1602 54.1574C78.8789 54.275 78.5859 54.3613 78.2852 54.4201C77.9844 54.4828 77.6797 54.5103 77.375 54.5103C77.0664 54.5103 76.7617 54.4828 76.4609 54.4201C76.1602 54.3613 75.8711 54.275 75.5859 54.1574C75.3008 54.0398 75.0312 53.8947 74.7773 53.7222C74.5234 53.5536 74.2852 53.3615 74.0703 53.1419C73.8516 52.9263 73.6602 52.691 73.4883 52.4362C73.3203 52.1813 73.1758 51.9108 73.0586 51.6285C72.9414 51.3423 72.8516 51.0521 72.793 50.7502C72.7305 50.4483 72.7031 50.1464 72.7031 49.8367C72.7031 49.5308 72.7305 49.2289 72.793 48.927C72.8516 48.6251 72.9414 48.335 73.0586 48.0488C73.1758 47.7665 73.3203 47.4959 73.4883 47.2411C73.6602 46.9862 73.8516 46.751 74.0703 46.5354C74.2852 46.3158 74.5234 46.1237 74.7773 45.9512C75.0312 45.7826 75.3008 45.6375 75.5859 45.5199C75.8711 45.4022 76.1602 45.316 76.4609 45.2532C76.7617 45.1944 77.0664 45.167 77.375 45.167C77.6797 45.167 77.9844 45.1944 78.2852 45.2532C78.5859 45.316 78.8789 45.4022 79.1602 45.5199C79.4453 45.6375 79.7148 45.7826 79.9688 45.9512C80.2266 46.1237 80.4609 46.3158 80.6797 46.5354C80.8945 46.751 81.0898 46.9862 81.2578 47.2411C81.4297 47.4959 81.5742 47.7665 81.6914 48.0488C81.8086 48.335 81.8984 48.6251 81.957 48.927C82.0156 49.2289 82.0469 49.5308 82.0469 49.8367Z" fill="#2C6871"/>
<path d="M33.5898 80.6149H13.3242C12.9961 80.6149 12.6836 80.5483 12.3828 80.4189C12.0781 80.2934 11.8125 80.1091 11.582 79.87C11.3516 79.6308 11.1719 79.3603 11.0469 79.0466C10.9219 78.7368 10.8594 78.4153 10.8594 78.0781V57.7567C10.8594 57.4234 10.9219 57.098 11.0469 56.7882C11.1719 56.4785 11.3516 56.204 11.582 55.9648C11.8125 55.7257 12.0781 55.5453 12.3828 55.4159C12.6836 55.2865 12.9961 55.2238 13.3242 55.2238C13.6523 55.2238 13.9648 55.2865 14.2656 55.4159C14.5703 55.5453 14.8359 55.7257 15.0664 55.9648C15.2969 56.204 15.4766 56.4785 15.6016 56.7882C15.7266 57.098 15.7891 57.4234 15.7891 57.7567V75.5414H33.5898C33.9141 75.5414 34.2305 75.6041 34.5312 75.7335C34.832 75.8629 35.1016 76.0472 35.332 76.2824C35.5625 76.5216 35.7383 76.796 35.8633 77.1058C35.9883 77.4195 36.0508 77.741 36.0508 78.0781C36.0508 78.4153 35.9883 78.7368 35.8633 79.0466C35.7383 79.3603 35.5625 79.6308 35.332 79.87C35.1016 80.1091 34.832 80.2934 34.5312 80.4189C34.2305 80.5483 33.9141 80.6149 33.5898 80.6149Z" fill="#2C6871"/>
</g>
<defs>
<clipPath id="clip0_22_26">
<rect width="105" height="91" fill="white"/>
</clipPath>
</defs>
</svg>
